<svg width="24" height="24" viewBox="0 0 24 24" fill="none" xmlns="http://www.w3.org/2000/svg">
<path d="M17.3125 0L24 6.6875V21.3125C24 22.0625 23.7292 22.7083 23.1875 23.25C22.6875 23.75 22.0625 24 21.3125 24H2.6875C1.9375 24 1.29167 23.75 0.75 23.25C0.25 22.7083 0 22.0625 0 21.3125V2.6875C0 1.9375 0.25 1.3125 0.75 0.8125C1.29167 0.270833 1.9375 0 2.6875 0H17.3125ZM5.3125 5.3125V8H12V5.3125H5.3125ZM18.6875 18.6875V16H5.3125V18.6875H18.6875ZM18.6875 13.3125V10.6875H5.3125V13.3125H18.6875ZM16 8H21.3125L16 2.6875V8Z" fill="#888888"/>
</svg>
