<svg width="27" height="27" viewBox="0 0 27 27" fill="none" xmlns="http://www.w3.org/2000/svg">
<path d="M14.625 9.3125V6.625H12V9.3125H14.625ZM14.625 20V12H12V20H14.625ZM3.875 3.9375C6.5 1.3125 9.64583 0 13.3125 0C16.9792 0 20.1042 1.3125 22.6875 3.9375C25.3125 6.52083 26.625 9.64583 26.625 13.3125C26.625 16.9792 25.3125 20.125 22.6875 22.75C20.1042 25.3333 16.9792 26.625 13.3125 26.625C9.64583 26.625 6.5 25.3333 3.875 22.75C1.29167 20.125 0 16.9792 0 13.3125C0 9.64583 1.29167 6.52083 3.875 3.9375Z" fill="#888888"/>
</svg>
