<svg width="128" height="34" viewBox="0 0 128 34" fill="none" xmlns="http://www.w3.org/2000/svg">
<g clip-path="url(#clip0_3701_2749)">
<path d="M43.5 11C42.8078 11 42.1311 11.2053 41.5555 11.5899C40.9799 11.9744 40.5313 12.5211 40.2664 13.1606C40.0015 13.8002 39.9322 14.5039 40.0673 15.1828C40.2023 15.8618 40.5356 16.4854 41.0251 16.9749C41.5146 17.4644 42.1383 17.7977 42.8172 17.9327C43.4961 18.0678 44.1999 17.9985 44.8394 17.7336C45.4789 17.4687 46.0256 17.0201 46.4101 16.4445C46.7947 15.8689 47 15.1922 47 14.5C47 13.5717 46.6313 12.6815 45.9749 12.0251C45.3185 11.3688 44.4283 11 43.5 11ZM43.5 16C43.2033 16 42.9133 15.912 42.6666 15.7472C42.42 15.5824 42.2277 15.3481 42.1142 15.074C42.0007 14.7999 41.9709 14.4983 42.0288 14.2074C42.0867 13.9164 42.2296 13.6491 42.4393 13.4393C42.6491 13.2296 42.9164 13.0867 43.2074 13.0288C43.4983 12.9709 43.7999 13.0007 44.074 13.1142C44.3481 13.2277 44.5824 13.42 44.7472 13.6666C44.912 13.9133 45 14.2033 45 14.5C45 14.8978 44.842 15.2794 44.5607 15.5607C44.2794 15.842 43.8978 16 43.5 16ZM26 14.5C26 13.8078 25.7947 13.1311 25.4101 12.5555C25.0256 11.9799 24.4789 11.5313 23.8394 11.2664C23.1999 11.0015 22.4961 10.9322 21.8172 11.0673C21.1383 11.2023 20.5146 11.5356 20.0251 12.0251C19.5356 12.5146 19.2023 13.1383 19.0673 13.8172C18.9322 14.4961 19.0015 15.1999 19.2664 15.8394C19.5313 16.4789 19.9799 17.0256 20.5555 17.4101C21.1311 17.7947 21.8078 18 22.5 18C23.4283 18 24.3185 17.6313 24.9749 16.9749C25.6313 16.3185 26 15.4283 26 14.5ZM22.5 16C22.2033 16 21.9133 15.912 21.6666 15.7472C21.42 15.5824 21.2277 15.3481 21.1142 15.074C21.0007 14.7999 20.9709 14.4983 21.0288 14.2074C21.0867 13.9164 21.2296 13.6491 21.4393 13.4393C21.6491 13.2296 21.9164 13.0867 22.2074 13.0288C22.4983 12.9709 22.7999 13.0007 23.074 13.1142C23.3481 13.2277 23.5824 13.42 23.7472 13.6666C23.912 13.9133 24 14.2033 24 14.5C24 14.8978 23.842 15.2794 23.5607 15.5607C23.2794 15.842 22.8978 16 22.5 16ZM28.5 12C29.1922 12 29.8689 11.7947 30.4445 11.4101C31.0201 11.0256 31.4687 10.4789 31.7336 9.83939C31.9985 9.19985 32.0678 8.49612 31.9328 7.81719C31.7977 7.13825 31.4644 6.51461 30.9749 6.02513C30.4854 5.53564 29.8618 5.2023 29.1828 5.06725C28.5039 4.9322 27.8002 5.00152 27.1606 5.26642C26.5211 5.53133 25.9744 5.97993 25.5899 6.55551C25.2053 7.13108 25 7.80777 25 8.5C25 9.42826 25.3688 10.3185 26.0251 10.9749C26.6815 11.6313 27.5717 12 28.5 12ZM28.5 7C28.7967 7 29.0867 7.08798 29.3334 7.2528C29.58 7.41762 29.7723 7.65189 29.8858 7.92598C29.9994 8.20007 30.0291 8.50167 29.9712 8.79264C29.9133 9.08361 29.7704 9.35088 29.5607 9.56066C29.3509 9.77044 29.0836 9.9133 28.7926 9.97118C28.5017 10.0291 28.2001 9.99935 27.926 9.88582C27.6519 9.77229 27.4176 9.58003 27.2528 9.33336C27.088 9.08668 27 8.79667 27 8.5C27 8.10218 27.158 7.72065 27.4393 7.43934C27.7206 7.15804 28.1022 7 28.5 7ZM37.5 12C38.1922 12 38.8689 11.7947 39.4445 11.4101C40.0201 11.0256 40.4687 10.4789 40.7336 9.83939C40.9985 9.19985 41.0678 8.49612 40.9328 7.81719C40.7977 7.13825 40.4644 6.51461 39.9749 6.02513C39.4854 5.53564 38.8618 5.2023 38.1828 5.06725C37.5039 4.9322 36.8002 5.00152 36.1606 5.26642C35.5211 5.53133 34.9744 5.97993 34.5899 6.55551C34.2053 7.13108 34 7.80777 34 8.5C34 9.42826 34.3687 10.3185 35.0251 10.9749C35.6815 11.6313 36.5717 12 37.5 12ZM37.5 7C37.7967 7 38.0867 7.08798 38.3334 7.2528C38.58 7.41762 38.7723 7.65189 38.8858 7.92598C38.9994 8.20007 39.0291 8.50167 38.9712 8.79264C38.9133 9.08361 38.7704 9.35088 38.5607 9.56066C38.3509 9.77044 38.0836 9.9133 37.7926 9.97118C37.5017 10.0291 37.2001 9.99935 36.926 9.88582C36.6519 9.77229 36.4176 9.58003 36.2528 9.33336C36.088 9.08668 36 8.79667 36 8.5C36 8.10218 36.158 7.72065 36.4393 7.43934C36.7206 7.15804 37.1022 7 37.5 7ZM40.39 19.6075C39.8821 19.3273 39.4344 18.9497 39.0725 18.4962C38.7107 18.0428 38.4418 17.5225 38.2813 16.965C37.9488 15.8216 37.2541 14.8169 36.3018 14.102C35.3494 13.3872 34.1908 13.0007 33 13.0007C31.8092 13.0007 30.6506 13.3872 29.6982 14.102C28.7459 14.8169 28.0512 15.8216 27.7188 16.965C27.3976 18.0867 26.6446 19.0352 25.625 19.6025C24.6469 20.1318 23.8732 20.972 23.4262 21.9903C22.9792 23.0086 22.8844 24.1469 23.1569 25.2251C23.4294 26.3033 24.0536 27.2599 24.9307 27.9436C25.8079 28.6273 26.8879 28.999 28 29C28.6665 29.0019 29.3264 28.8688 29.94 28.6088C31.8963 27.8019 34.0924 27.8019 36.0488 28.6088C37.2337 29.1241 38.5721 29.1607 39.7835 28.7109C40.9948 28.2611 41.985 27.3598 42.5464 26.1959C43.1078 25.0321 43.1968 23.6961 42.7948 22.4681C42.3928 21.24 41.5309 20.2153 40.39 19.6088V19.6075ZM38 27C37.594 27.0003 37.1921 26.9183 36.8188 26.7588C34.3695 25.7471 31.6192 25.7471 29.17 26.7588C28.4583 27.0652 27.6555 27.0844 26.93 26.8122C26.2044 26.54 25.6123 25.9977 25.2777 25.2987C24.9431 24.5998 24.8919 23.7984 25.1349 23.0626C25.3779 22.3268 25.8962 21.7135 26.5813 21.3513C27.3178 20.9445 27.9669 20.3965 28.4916 19.7387C29.0162 19.0809 29.406 18.3261 29.6388 17.5175C29.8501 16.7895 30.2921 16.1498 30.8982 15.6945C31.5044 15.2393 32.2419 14.9932 33 14.9932C33.7581 14.9932 34.4956 15.2393 35.1018 15.6945C35.7079 16.1498 36.1499 16.7895 36.3613 17.5175C36.5947 18.3276 36.9858 19.0837 37.5119 19.7424C38.0381 20.4011 38.689 20.9495 39.4275 21.3563C40.0173 21.6726 40.4844 22.177 40.7545 22.7894C41.0245 23.4017 41.0821 24.0868 40.918 24.7357C40.7539 25.3845 40.3775 25.9598 39.8488 26.3701C39.32 26.7804 38.6693 27.0021 38 27Z" fill="#FCFCFC"/>
<path d="M49.81 2.54495H52.87L56.506 10.339L60.16 2.54495H63.202V15.127H60.232V8.80895L57.226 15.127H55.786L52.798 8.80895V15.127H49.81V2.54495ZM68.2957 15.397C67.1077 15.397 66.2137 15.067 65.6137 14.407C65.0257 13.747 64.7317 12.877 64.7317 11.797V6.48695H67.8997V11.437C67.8997 12.433 68.3497 12.931 69.2497 12.931C69.6577 12.931 70.0297 12.835 70.3657 12.643C70.7017 12.451 70.9777 12.169 71.1937 11.797V6.48695H74.3617V15.127H71.3017V14.191C70.9297 14.587 70.4797 14.887 69.9517 15.091C69.4237 15.295 68.8717 15.397 68.2957 15.397ZM75.9838 6.48695H79.0438V7.44095C79.4158 7.03295 79.8658 6.72695 80.3938 6.52295C80.9218 6.31895 81.4738 6.21695 82.0498 6.21695C83.2618 6.21695 84.1558 6.53495 84.7318 7.17095C85.3198 7.79495 85.6138 8.64695 85.6138 9.72695V15.127H82.4458V10.141C82.4458 9.16895 82.0018 8.68295 81.1138 8.68295C80.7058 8.68295 80.3338 8.77895 79.9978 8.97095C79.6618 9.15095 79.3798 9.43295 79.1518 9.81695V15.127H75.9838V6.48695ZM91.3759 15.397C90.4759 15.397 89.6779 15.211 88.9819 14.839C88.2859 14.455 87.7459 13.921 87.3619 13.237C86.9779 12.541 86.7859 11.737 86.7859 10.825C86.7859 9.92495 86.9779 9.12695 87.3619 8.43095C87.7459 7.72295 88.2799 7.17695 88.9639 6.79295C89.6599 6.40895 90.4639 6.21695 91.3759 6.21695C91.9759 6.21695 92.5279 6.30095 93.0319 6.46895C93.5359 6.63695 93.9679 6.87695 94.3279 7.18895V1.82495H97.4959V15.127H94.4359V14.263C93.6319 15.019 92.6119 15.397 91.3759 15.397ZM92.2039 12.949C92.6839 12.949 93.1159 12.829 93.4999 12.589C93.8839 12.337 94.1599 12.001 94.3279 11.581V10.051C94.1599 9.63095 93.8839 9.30095 93.4999 9.06095C93.1159 8.80895 92.6839 8.68295 92.2039 8.68295C91.5559 8.68295 91.0339 8.87495 90.6379 9.25895C90.2419 9.64295 90.0439 10.165 90.0439 10.825C90.0439 11.485 90.2419 12.007 90.6379 12.391C91.0339 12.763 91.5559 12.949 92.2039 12.949ZM103.821 15.397C102.753 15.397 101.817 15.205 101.013 14.821C100.209 14.425 99.585 13.885 99.141 13.201C98.709 12.505 98.493 11.707 98.493 10.807C98.493 9.90695 98.709 9.11495 99.141 8.43095C99.585 7.73495 100.209 7.19495 101.013 6.81095C101.817 6.41495 102.753 6.21695 103.821 6.21695C104.889 6.21695 105.825 6.41495 106.629 6.81095C107.433 7.19495 108.051 7.73495 108.483 8.43095C108.927 9.11495 109.149 9.90695 109.149 10.807C109.149 11.707 108.927 12.505 108.483 13.201C108.051 13.885 107.433 14.425 106.629 14.821C105.825 15.205 104.889 15.397 103.821 15.397ZM103.821 12.931C104.457 12.931 104.961 12.745 105.333 12.373C105.717 11.989 105.909 11.467 105.909 10.807C105.909 10.147 105.717 9.63095 105.333 9.25895C104.961 8.87495 104.457 8.68295 103.821 8.68295C103.185 8.68295 102.675 8.87495 102.291 9.25895C101.919 9.63095 101.733 10.147 101.733 10.807C101.733 11.467 101.919 11.989 102.291 12.373C102.675 12.745 103.185 12.931 103.821 12.931Z" fill="white"/>
<path d="M49.81 17.545H55.354C56.818 17.545 57.988 17.929 58.864 18.697C59.74 19.465 60.178 20.539 60.178 21.919C60.178 23.335 59.74 24.433 58.864 25.213C58 25.981 56.83 26.365 55.354 26.365H52.996V30.127H49.81V17.545ZM54.85 23.683C55.486 23.683 55.984 23.551 56.344 23.287C56.716 23.023 56.902 22.567 56.902 21.919C56.902 21.271 56.722 20.827 56.362 20.587C56.002 20.347 55.498 20.227 54.85 20.227H52.996V23.683H54.85ZM66.3294 30.397C64.6374 30.397 63.3054 30.001 62.3334 29.209C61.3734 28.417 60.8934 27.295 60.8934 25.843C60.8934 24.415 61.3194 23.287 62.1714 22.459C63.0354 21.631 64.2774 21.217 65.8974 21.217C66.9294 21.217 67.8114 21.415 68.5434 21.811C69.2874 22.195 69.8454 22.729 70.2174 23.413C70.6014 24.085 70.7934 24.847 70.7934 25.699V26.869H63.8994C64.0194 27.349 64.3194 27.697 64.7994 27.913C65.2794 28.129 65.9334 28.237 66.7614 28.237C67.3254 28.237 67.9014 28.189 68.4894 28.093C69.0894 27.997 69.6054 27.865 70.0374 27.697V29.785C69.5934 29.965 69.0354 30.109 68.3634 30.217C67.7034 30.337 67.0254 30.397 66.3294 30.397ZM67.8054 24.889C67.7574 24.421 67.5654 24.055 67.2294 23.791C66.8934 23.527 66.4314 23.395 65.8434 23.395C65.2674 23.395 64.8114 23.533 64.4754 23.809C64.1394 24.073 63.9474 24.433 63.8994 24.889H67.8054ZM75.7903 30.397C74.7223 30.397 73.9123 30.103 73.3603 29.515C72.8203 28.915 72.5503 28.099 72.5503 27.067V23.683H71.3263V21.487H72.5503V18.895H75.7183V21.487H77.6983V23.683H75.7183V26.635C75.7183 27.103 75.8023 27.439 75.9703 27.643C76.1503 27.847 76.4623 27.949 76.9063 27.949C77.3023 27.949 77.6983 27.841 78.0943 27.625V29.983C77.7823 30.127 77.4463 30.229 77.0863 30.289C76.7383 30.361 76.3063 30.397 75.7903 30.397Z" fill="#FD7BF0"/>
</g>
<defs>
<clipPath id="clip0_3701_2749">
<rect width="127.258" height="34" fill="white"/>
</clipPath>
</defs>
</svg>
